<?xml version="1.0" encoding="utf-8"?>
<!-- Generator: Adobe Illustrator 18.0.0, SVG Export Plug-In . SVG Version: 6.00 Build 0)  -->
<!DOCTYPE svg PUBLIC "-//W3C//DTD SVG 1.1//EN" "http://www.w3.org/Graphics/SVG/1.1/DTD/svg11.dtd">
<svg version="1.1" xmlns="http://www.w3.org/2000/svg" xmlns:xlink="http://www.w3.org/1999/xlink" x="0px" y="0px"
	 viewBox="0 0 220 72" style="enable-background:new 0 0 220 72;" xml:space="preserve">
<style type="text/css">
	.st0{fill:#C0C0C0;}
	.st1{fill:#FF0000;}
</style>
<g id="Layer_2">
</g>
<g id="_x30_">
	<g>
		<path class="st0" d="M196.7,62.1c14.4-6.7,20.7-23.9,13.9-38.3c-2.9-6.1-7.8-11.1-13.9-13.9l0,0h-68.2l-13.5,23.9l-3.7-6.6
			l-1.3,2.3l18.8,32.7L196.7,62.1L196.7,62.1z"/>
		<path class="st1" d="M23.3,62.1l67.9,0l13.6-23.9l3.8,6.7l1.3-2.3L91.5,9.8H23.3l0,0C8.9,16.6,2.6,33.7,9.4,48.2
			C12.2,54.3,17.2,59.2,23.3,62.1L23.3,62.1z"/>
		<g>
			<polygon points="24.5,14.8 18.2,14.8 18.2,57 34.2,57 34.2,46.6 24.5,46.6 			"/>
			<rect x="37.2" y="14.8" width="6.3" height="42.1"/>
			<polygon points="152,14.8 145.8,14.8 145.8,57 161.8,57 161.8,46.6 152,46.6 			"/>
			<polygon points="84.6,40.5 84.5,43.2 83.7,45.9 82.9,47.2 81.2,47.8 80,47.5 78.7,45.9 78,44 77.8,40.5 77.8,14.8 71.5,14.8 
				71.5,39.9 71.5,40.1 71.7,43.4 72.1,47 72.5,48.9 73.5,51.9 74.2,53.5 75.6,55.5 76.7,56.5 78.5,57.2 80.1,57.5 81.7,57.7 
				82.9,57.6 84.6,57.1 86.1,56.2 87.2,55.1 88.6,52.8 89.6,50.1 90.3,47 90.3,46.9 90.7,43.5 90.9,39.9 90.9,14.8 84.6,14.8 			"/>
			<polygon points="61.5,38.2 53.9,14.8 48.1,14.8 48.1,57 53.9,57 53.9,33.8 61.5,57 67.4,57 67.4,14.8 61.5,14.8 			"/>
			<polygon points="136.8,43.1 136,45.8 135,47.2 133.3,47.9 131.6,47.3 130.4,45.3 129.9,43.3 129.5,40 129.4,35.7 129.4,33.7 
				129.7,30.1 130.2,27.4 130.6,26.5 131.8,24.5 133.5,23.9 133.6,23.9 135.2,24.6 135.2,24.7 136.5,27 137.1,29.8 142.6,27.3 
				142.3,25.4 141.5,22.2 140.5,19.5 139.3,17.3 138.4,16.2 136.9,15.1 135.3,14.3 133.4,14.1 131.5,14.3 129.8,15 128.3,16.2 
				127,17.7 125.8,19.7 125.7,19.9 124.8,22.3 124.1,25.1 123.6,28.3 123.3,31.8 123.1,35.8 123.2,39.1 123.5,42.7 123.9,45.8 
				124.7,48.7 125.7,51.7 126.9,54 128.3,55.6 128.6,56 130,56.9 131.7,57.5 133.7,57.7 135,57.5 136.7,57 138.1,56 138.5,55.6 
				139.9,53.7 141.1,51.1 141.5,49.8 142.2,46.7 142.8,43.2 137.3,39.8 			"/>
			<polygon points="177.8,40.5 177.6,43.2 176.8,45.9 176,47.2 174.3,47.8 173.1,47.5 171.8,45.9 171.2,44 170.9,40.5 170.9,14.8 
				164.7,14.8 164.7,39.9 164.7,40.1 164.8,43.4 165.2,47 165.6,48.9 166.5,51.9 167.3,53.5 168.7,55.5 169.9,56.5 171.6,57.2 
				173.2,57.5 174.8,57.7 176,57.6 177.7,57.1 179.2,56.2 180.3,55.1 181.7,52.8 182.7,50.1 183.5,47 183.5,46.9 183.9,43.5 
				184,39.9 184,14.8 177.8,14.8 			"/>
			<path d="M206.5,41.2l-0.7-2.9l-0.3-0.6l-1.2-1.9l-1.7-1.3l0.9-0.8l1.2-2l0.1-0.1l0.8-2.9l0.3-3.5l-0.1-1.5l-0.5-3.2l-1-2.7
				l-1.1-1.6l-1.5-1.1l-1.9-0.4h-11.6V57h10.7l0.8-0.1l2-0.5l0.9-0.4l1.5-1l0.9-1.5l1.1-2.7l0.4-2.4l0.3-3.5v-0.2L206.5,41.2z
				 M194.4,23.4h2.8h0.6l1.5,1l0.6,2.8l-0.6,3l-0.3,0.4l-1.7,0.6h-2.8V23.4z M200.6,43.7l-0.7,3l-0.4,0.6l-1.8,0.6h-3.2v-8.5h3.2
				l0.9,0.1l1.5,1l0.7,3V43.7z"/>
		</g>
		<g id="LWPOLYLINE_10_">
			<path d="M115.1,33.7l-3.7-6.6L126.9,0l5.4,3.1H198c8.7,3.6,15.7,10.5,19.3,19.3c7.5,18.1-1.2,38.9-19.3,46.4l-65.5,0l-5.8,3.2
				L91.5,9.8H23.3C8.9,16.6,2.6,33.7,9.4,48.2c2.9,6.1,7.8,11.1,13.9,13.9l67.9,0l13.6-23.9l3.8,6.7L93.3,72l-5.8-3.2l-65.5,0
				C13.2,65.2,6.3,58.2,2.7,49.5C-4.8,31.4,3.8,10.6,22,3.1h65.7L93.1,0l35.7,62.1l67.9,0c14.4-6.7,20.7-23.9,13.9-38.3
				c-2.9-6.1-7.8-11.1-13.9-13.9h-68.2L115.1,33.7z"/>
		</g>
	</g>
</g>
</svg>
