<?xml version="1.0" encoding="utf-8"?>
<!-- Generator: Adobe Illustrator 18.0.0, SVG Export Plug-In . SVG Version: 6.00 Build 0)  -->
<!DOCTYPE svg PUBLIC "-//W3C//DTD SVG 1.1//EN" "http://www.w3.org/Graphics/SVG/1.1/DTD/svg11.dtd">
<svg version="1.1" id="Layer_1" xmlns="http://www.w3.org/2000/svg" xmlns:xlink="http://www.w3.org/1999/xlink" x="0px" y="0px"
	 viewBox="0 0 84 84" enable-background="new 0 0 84 84" xml:space="preserve">
<line fill="none" x1="0" y1="84" x2="0" y2="0"/>
<rect fill="none" width="84" height="84"/>
<path fill="#FAA61A" d="M39,45.3c-1.1-1.1-3.2-0.8-4.7,0.6c-1.1,1.1-1.5,2.5-1.2,3.6c-1.8,2.4-4.8,3.7-7.7,3.3
	c-4.5-0.7-10-6.3-15.3-3.1c-1.6,0.9-4.7,3.5-6.6,8.4C8.8,48.2,15,49.9,18,51.5c2.3,1.2,6.3,4,10.6,3.5c2.2-0.2,5-2,6.4-3.8
	c1.1,0.2,2.4-0.2,3.4-1.3C39.9,48.5,40.1,46.4,39,45.3L39,45.3z"/>
<path fill="#FAA61A" d="M25.4,42h5.7c0-6,4.9-10.8,10.8-10.8S52.8,36,52.8,42c0,6-4.9,10.9-10.8,10.9v5.7c9.1,0,16.6-7.4,16.6-16.6
	c0-9.1-7.4-16.6-16.6-16.6S25.4,32.9,25.4,42L25.4,42z"/>
</svg>
