<?xml version="1.0" encoding="utf-8"?>
<!-- Generator: Adobe Illustrator 18.0.0, SVG Export Plug-In . SVG Version: 6.00 Build 0)  -->
<!DOCTYPE svg PUBLIC "-//W3C//DTD SVG 1.1//EN" "http://www.w3.org/Graphics/SVG/1.1/DTD/svg11.dtd">
<svg version="1.1" id="Layer_1" xmlns="http://www.w3.org/2000/svg" xmlns:xlink="http://www.w3.org/1999/xlink" x="0px" y="0px"
	 viewBox="0 0 250 84" enable-background="new 0 0 250 84" xml:space="preserve">
<rect x="0" y="0" fill="none" width="250" height="84"/>
<rect fill="none" width="84" height="84"/>
<g>
	<path fill="#FAA61A" d="M39,45.3c-1.1-1.1-3.2-0.8-4.7,0.6c-1.1,1.1-1.5,2.5-1.2,3.6c-1.8,2.4-4.8,3.7-7.7,3.3
		c-4.5-0.7-10-6.3-15.3-3.1c-1.6,0.9-4.7,3.5-6.6,8.4C8.8,48.2,15,49.9,18,51.5c2.3,1.2,6.3,4,10.6,3.5c2.2-0.2,5-2,6.4-3.8
		c1.1,0.2,2.4-0.2,3.4-1.3C39.9,48.5,40.1,46.4,39,45.3L39,45.3z"/>
	<path fill="#FAA61A" d="M25.4,42h5.7c0-6,4.9-10.8,10.8-10.8S52.8,36,52.8,42c0,6-4.9,10.9-10.8,10.9v5.7c9.1,0,16.6-7.4,16.6-16.6
		c0-9.1-7.4-16.6-16.6-16.6S25.4,32.9,25.4,42L25.4,42z"/>
	<polyline fill="#FFFFFF" points="70,30.7 77.2,30.7 77.2,32.4 71.7,32.4 71.7,35.7 76.4,35.7 76.4,37.2 71.7,37.2 71.7,42 70,42 
		70,30.7 	"/>
	<polyline fill="#FFFFFF" points="78.9,30.7 80.6,30.7 80.6,40.4 86.1,40.4 86.1,42 78.9,42 78.9,30.7 	"/>
	<polyline fill="#FFFFFF" points="88.8,37.3 85.5,30.7 87.3,30.7 89.6,35.7 92,30.7 93.8,30.7 90.4,37.3 90.4,42 88.8,42 88.8,37.3 
			"/>
	<polyline fill="#FFFFFF" points="95.5,30.7 102.6,30.7 102.6,32.3 97.2,32.3 97.2,35.5 101.8,35.5 101.8,37 97.2,37 97.2,40.3 
		102.6,40.3 102.6,41.9 95.5,41.9 95.5,30.7 	"/>
	<path fill="#FFFFFF" d="M106,32.2h2.7c0.6,0,0.9,0.1,1.2,0.3c0.3,0.3,0.6,0.7,0.6,1.3c0,0.9-0.6,1.8-1.9,1.8H106V32.2z M104.3,41.9
		h1.7v-4.8h2.2l2.3,4.8h2l-2.6-5c1.4-0.5,2.2-1.7,2.2-3.1c0-1-0.5-1.9-1.1-2.4c-0.6-0.5-1.3-0.7-2.3-0.7h-4.4V41.9"/>
	<path fill="#A8B0BA" d="M125.6,38.8c-0.4,2.1-2,3.2-3.9,3.2c-1.8,0-3-1-3.5-2c-0.4-0.7-0.5-1-0.5-3.7c0-2.7,0.1-3,0.5-3.7
		c0.5-1,1.7-2,3.5-2c2.1,0,3.6,1.5,3.9,3.3h-1.8c-0.3-0.9-1.1-1.6-2.1-1.6c-0.8,0-1.4,0.4-1.7,0.8c-0.4,0.6-0.6,0.9-0.6,3.2
		c0,2.3,0.1,2.6,0.6,3.2c0.3,0.4,0.9,0.8,1.7,0.8c0.9,0,1.7-0.5,2.1-1.5H125.6"/>
	<path fill="#A8B0BA" d="M128.2,36.4c0-2.3,0.1-2.6,0.6-3.2c0.3-0.4,0.9-0.8,1.7-0.8c0.8,0,1.4,0.4,1.7,0.8c0.4,0.6,0.6,0.9,0.6,3.2
		c0,2.3-0.1,2.6-0.6,3.2c-0.3,0.4-0.9,0.8-1.7,0.8c-0.8,0-1.4-0.4-1.7-0.8C128.3,39,128.2,38.7,128.2,36.4z M126.5,36.4
		c0,2.7,0.1,3,0.5,3.7c0.5,1,1.8,2,3.5,2c1.8,0,3-1,3.5-2c0.4-0.7,0.5-1,0.5-3.7c0-2.7-0.1-3-0.5-3.7c-0.5-1-1.7-2-3.5-2
		c-1.8,0-3,1-3.5,2C126.6,33.3,126.5,33.7,126.5,36.4"/>
	<polyline fill="#A8B0BA" points="136.4,30.7 138,30.7 141.3,38.1 144.4,30.7 146,30.7 146,42 144.3,42 144.3,35 144.3,35 
		141.9,40.4 140.5,40.4 138.2,35 138.1,35 138.1,42 136.4,42 136.4,30.7 	"/>
	<polyline fill="#A8B0BA" points="148.4,30.7 150,30.7 153.2,38.1 156.3,30.7 157.9,30.7 157.9,42 156.2,42 156.2,35 156.2,35 
		153.9,40.4 152.4,40.4 150.1,35 150.1,35 150.1,42 148.4,42 148.4,30.7 	"/>
	<path fill="#A8B0BA" d="M160.1,30.7h1.7V38c0,1.5,1,2.4,2.3,2.4c1.3,0,2.3-0.8,2.3-2.4v-7.2h1.7v7.4c0,2.3-1.8,3.9-4,3.9
		c-2.2,0-4-1.6-4-3.9V30.7"/>
	<polyline fill="#A8B0BA" points="170.2,30.7 171.8,30.7 176.9,38.7 176.9,38.7 176.9,30.7 178.6,30.7 178.6,42 177,42 171.9,34 
		171.9,34 171.9,42 170.2,42 170.2,30.7 	"/>
	<rect x="181" y="30.7" fill="#A8B0BA" width="1.7" height="11.2"/>
	<path fill="#A8B0BA" d="M192.6,38.8c-0.4,2.1-2,3.2-3.9,3.2c-1.8,0-3-1-3.5-2c-0.4-0.7-0.5-1-0.5-3.7c0-2.7,0.1-3,0.5-3.7
		c0.5-1,1.7-2,3.5-2c2.1,0,3.6,1.5,3.9,3.3h-1.8c-0.3-0.9-1.1-1.6-2.1-1.6c-0.8,0-1.4,0.4-1.7,0.8c-0.4,0.6-0.6,0.9-0.6,3.2
		c0,2.3,0.1,2.6,0.6,3.2c0.3,0.4,0.9,0.8,1.7,0.8c0.9,0,1.7-0.5,2.1-1.5H192.6"/>
	<path fill="#A8B0BA" d="M195.8,37.9l1.6-4.9h0l1.6,4.9H195.8z M200.4,42h1.8l-4.1-11.2h-1.4L192.6,42h1.8l0.9-2.5h4.2L200.4,42"/>
	<polyline fill="#A8B0BA" points="204.1,32.3 201.1,32.3 201.1,30.7 208.9,30.7 208.9,32.3 205.8,32.3 205.8,42 204.1,42 
		204.1,32.3 	"/>
	<rect x="210.1" y="30.7" fill="#A8B0BA" width="1.7" height="11.2"/>
	<path fill="#A8B0BA" d="M215.5,36.4c0-2.3,0.1-2.6,0.6-3.2c0.3-0.4,0.9-0.8,1.7-0.8c0.8,0,1.4,0.4,1.7,0.8c0.4,0.6,0.6,0.9,0.6,3.2
		c0,2.3-0.1,2.6-0.6,3.2c-0.3,0.4-0.9,0.8-1.7,0.8c-0.8,0-1.4-0.4-1.7-0.8C215.6,39,215.5,38.7,215.5,36.4z M213.8,36.4
		c0,2.7,0.1,3,0.5,3.7c0.5,1,1.7,2,3.5,2c1.8,0,3-1,3.5-2c0.4-0.7,0.5-1,0.5-3.7c0-2.7-0.1-3-0.5-3.7c-0.5-1-1.7-2-3.5-2
		c-1.8,0-3,1-3.5,2C213.9,33.3,213.8,33.7,213.8,36.4"/>
	<polyline fill="#A8B0BA" points="223.8,30.7 225.4,30.7 230.4,38.7 230.5,38.7 230.5,30.7 232.2,30.7 232.2,42 230.6,42 225.5,34 
		225.5,34 225.5,42 223.8,42 223.8,30.7 	"/>
</g>
</svg>
