<?xml version="1.0" encoding="utf-8"?>
<!-- Generator: Adobe Illustrator 18.0.0, SVG Export Plug-In . SVG Version: 6.00 Build 0)  -->
<!DOCTYPE svg PUBLIC "-//W3C//DTD SVG 1.1//EN" "http://www.w3.org/Graphics/SVG/1.1/DTD/svg11.dtd">
<svg version="1.1" id="Layer_1" xmlns="http://www.w3.org/2000/svg" xmlns:xlink="http://www.w3.org/1999/xlink" x="0px" y="0px"
	 viewBox="75.4 329.9 444.8 181.8" enable-background="new 75.4 329.9 444.8 181.8" xml:space="preserve">
<g>
	<path fill="#EB1D48" d="M197.2,451.3c-3.9,0-7.6-2.5-10.1-6.8l-21.2-36.7c-2.5-4.3-2.8-8.7-0.9-12.1c2-3.4,5.9-5.4,10.9-5.4
		l42.4-0.1c5,0,9,1.9,10.9,5.3c2,3.4,1.7,7.8-0.8,12.1l-21.1,36.7C204.8,448.9,201.1,451.3,197.2,451.3 M218.3,397.4h-42.4
		c-2.4,0-4.2,0.7-4.8,1.8c-0.7,1.2-0.4,3,0.8,5.1l21.2,36.7c1.2,2.1,2.7,3.3,4,3.3s2.8-1.2,4-3.3l21.2-36.7c1.2-2.1,1.5-3.9,0.8-5.1
		C222.5,398,220.7,397.4,218.3,397.4"/>
	<g>
		<path fill="#FFFFFF" d="M166.3,329.9c-50.1,0-90.9,40.8-90.9,90.9s40.7,90.9,90.9,90.9c50.1,0,90.9-40.8,90.9-90.9
			S216.4,329.9,166.3,329.9z M166.3,504.6c-46.2,0-83.8-37.6-83.8-83.8s37.6-83.8,83.8-83.8s83.8,37.6,83.8,83.8
			C250.1,467,212.5,504.6,166.3,504.6z"/>
		<path fill="#FFFFFF" d="M145.7,397c-2.5-4.3-6.2-6.8-10.1-6.8c-3.9,0-7.6,2.5-10.1,6.7l-21.3,36.7c-2.5,4.3-2.8,8.7-0.9,12.1
			c2,3.4,5.9,5.3,10.9,5.4l42.4,0.1l0,0c5,0,8.9-1.9,10.9-5.3c1.9-3.4,1.7-7.8-0.8-12.1L145.7,397z M161.5,442.4
			c-0.7,1.2-2.4,1.8-4.8,1.8v3.5v-3.5l-42.4-0.1c-2.4,0-4.2-0.7-4.8-1.8c-0.7-1.2-0.3-3,0.9-5.1l21.3-36.7c1.2-2.1,2.7-3.3,4-3.3
			s2.8,1.2,4,3.3l21.1,36.8C161.9,439.4,162.2,441.2,161.5,442.4z"/>
		<path fill="#FFFFFF" d="M321.5,390.5h-31.7c-3.8,0.1-8.4,2-8.8,10.4v49.8h7.4v-50c-0.1-1.4,0-2.4,0.6-3c0.7-0.7,2-0.9,3.9-0.6
			h25.8h0.2c1.7-0.3,2.9-0.1,3.4,0.6c0.5,0.6,0.6,1.9,0.2,3.6v49.4h7.6v-49.3c0.5-3.6,0-6.4-1.6-8.3
			C327,391.4,324.7,390.5,321.5,390.5z"/>
		<path fill="#FFFFFF" d="M391.9,392c-1-1.2-2.6-1.8-4.7-1.8h-34.4h-0.2c-3.5,0-6,0.8-7.5,2.5c-1.2,1.4-1.7,3.3-1.3,5.8V440
			c0.4,8.4,5,10.3,8.8,10.3h32.5c0.2,0,0.4,0,0.6,0c2.5,0,4.3-0.7,5.6-2.2c1.6-1.8,2.1-4.7,1.6-8.7v-41
			C393.4,395.5,393.1,393.4,391.9,392z M355.8,443.8h-0.2c-1.7,0.3-2.9,0.1-3.6-0.6c-0.7-0.7-1-2.1-0.9-4v-40c-0.1-1.2,0-2,0.4-2.5
			c0.4-0.4,1-0.6,1.9-0.6c0.6,0,1.2,0.1,1.9,0.2h0.1h26c1.6-0.2,2.7,0,3.3,0.6c0.4,0.5,0.6,1.4,0.4,2.7v39.7v0.2
			c0.4,1.7,0.3,2.9-0.2,3.6c-0.4,0.5-1.1,0.7-2.1,0.7c-0.4,0-0.8,0-1.3-0.1L355.8,443.8z"/>
		<path fill="#FFFFFF" d="M449.2,389.8h-34.3c-4,0.1-8.8,2-9.3,10.4v41.6c0.2,5.4,3.2,8.2,8.7,8.2c0.3,0,0.5,0,0.7,0h3.1
			c4.8,0,8.4-1.8,10.8-5.3l13.9-22.9l12.5-21c1.8-3.7,2-6.4,0.8-8.3C455.1,390.7,452.7,389.8,449.2,389.8z M412.9,400.2
			c-0.2-1.5-0.1-2.6,0.4-3.2c0.5-0.6,1.4-0.9,2.7-0.9c0.5,0,1.1,0.1,1.8,0.2h0.1h26.8c0.4,0,0.7,0,1,0c1.3,0,2,0.3,2.1,0.5
			c0.1,0.1,0.3,0.9-1.3,3.2l-23.4,40.6c-1.5,2.2-3.2,3.2-5.3,3.2h-0.2c-2.1,0.4-3.5,0.3-4.2-0.4c-0.5-0.5-0.6-1.3-0.5-2.6v-40.5
			V400.2z"/>
		<path fill="#FFFFFF" d="M480.9,443.8h-0.2c-1.9,0.4-3.3,0.3-3.9-0.4c-0.5-0.5-0.6-1.3-0.5-2.6v-40.6c-0.2-1.5,0-2.6,0.5-3.3
			c0.7-0.8,2.1-1,4.2-0.7h0.1h25.8c0.3,0,0.7,0,1,0c1.3,0,1.8,0.3,2,0.5c0.1,0.1,0.3,0.9-1.3,3.3l-12.5,22.3h8.2l12.2-21.5
			c1.7-3.7,1.9-6.5,0.7-8.4c-1.1-1.7-3.4-2.6-6.7-2.6h-32.6c-3.8,0.1-8.4,2-8.8,10.4v41.6c0.1,5.4,3,8.2,8.3,8.2c0.2,0,0.5,0,0.7,0
			h42.1v-6.1L480.9,443.8L480.9,443.8z"/>
	</g>
</g>
</svg>
