<?xml version="1.0" encoding="utf-8"?>
<!-- Generator: Adobe Illustrator 18.0.0, SVG Export Plug-In . SVG Version: 6.00 Build 0)  -->
<!DOCTYPE svg PUBLIC "-//W3C//DTD SVG 1.0//EN" "http://www.w3.org/TR/2001/REC-SVG-20010904/DTD/svg10.dtd">
<svg version="1.0" id="Layer_1" xmlns="http://www.w3.org/2000/svg" xmlns:xlink="http://www.w3.org/1999/xlink" x="0px" y="0px"
	 viewBox="0 0 445.8 57.7" enable-background="new 0 0 445.8 57.7" xml:space="preserve">
<g>
	<path fill="#73BD20" d="M41.8,23c2.2,0.3,4.4,1.4,6.7,0c2.9-1.7,4.1-5.4,2.3-8.6c-1.8-3.1-5.7-4-8.6-2.3c-2.3,1.3-2.5,3.7-3.4,5.8
		c-0.6,1.7-4.3,5.6-9.8,7.7c-0.9,0.4-2-0.3-2.1-1.2c-1-5.8,0.7-11,1.8-12.3c1.4-1.8,3.4-3.1,3.4-5.9c0-3.3-2.7-6.3-6.3-6.3
		c-3.6,0-6.3,2.9-6.3,6.3c0,2.7,2,4.1,3.3,5.9c1.1,1.3,2.7,6.5,1.8,12.3c-0.2,0.9-1.2,1.6-2.1,1.2c-5.5-2.1-9.2-6.1-9.8-7.7
		c-0.9-2.1-1-4.5-3.4-5.8c-2.9-1.7-6.8-0.8-8.6,2.3c-1.8,3.1-0.6,6.9,2.3,8.6c2.3,1.4,4.5,0.3,6.8,0c1.7-0.3,7,0.9,11.6,4.7v2.4
		c-4.6,3.7-9.9,4.9-11.6,4.6c-2.2-0.3-4.4-1.3-6.8,0c-2.9,1.7-4.1,5.5-2.3,8.6c1.8,3.1,5.7,4,8.6,2.3c2.3-1.4,2.5-3.8,3.4-5.8
		c0.6-1.7,4.3-5.6,9.8-7.7c0.9-0.4,2,0.2,2.1,1.2c0.9,5.9-0.7,11-1.8,12.4c-1.4,1.8-3.3,3.1-3.3,5.8c0,3.4,2.7,6.3,6.3,6.3
		c3.6,0,6.3-2.9,6.3-6.3c0-2.7-2-4.1-3.4-5.8c-1.1-1.4-2.6-6.5-1.8-12.4c0.1-0.9,1.2-1.5,2.1-1.2c5.5,2,9.2,6.1,9.8,7.7
		c0.9,2.1,1.1,4.5,3.4,5.8c2.9,1.7,6.8,0.8,8.6-2.3c1.8-3.1,0.6-6.9-2.3-8.6c-2.3-1.3-4.5-0.3-6.7,0c-1.7,0.3-6.9-1-11.6-4.6v-2.4
		C34.7,23.8,40.1,22.7,41.8,23"/>
	<path fill="#C8C8C8" d="M80.9,37.2c0.2,3.9,1.4,5.7,3.9,5.7c2.2,0,3.6-1.5,3.6-3.7c0-3.2-2.2-5.2-5.3-8.3
		c-4.3-4.3-7.4-7.5-7.4-12.5c0-5.5,4.2-9.6,9.2-9.6c4.9,0,8.4,3.5,8.9,9.6L88.1,19c-0.2-3.4-1.1-4.8-3.2-4.8c-1.9,0-3.2,1.4-3.2,3.5
		c0,3.5,2.6,5.8,5.9,9.1c4.1,4,6.6,6.9,6.6,12.2c0,5.6-3.9,9.6-9.2,9.6c-5.8,0-9.6-3.8-9.8-10.6L80.9,37.2L80.9,37.2z"/>
	<polygon fill="#C8C8C8" points="115.7,9.3 115.7,25 121.7,25 121.7,9.3 127.6,9.3 127.6,47.8 121.7,47.8 121.7,30.6 115.7,30.6 
		115.7,47.8 109.9,47.8 109.9,9.3 115.7,9.3 	"/>
	<path fill="#C8C8C8" d="M156.6,39.3c0,2.7-1,4-3,4c-2,0-3.1-1.3-3.1-4V17.8c0-2.7,1-4,3.1-4c2,0,3,1.3,3,4V39.3L156.6,39.3z
		 M144.4,18.2v19.7c0,7,3.2,10.7,9.1,10.7c5.8,0,9.1-3.7,9.1-10.5V18.4c0-6.2-3.5-9.9-8.9-9.9C147.9,8.5,144.4,12.2,144.4,18.2"/>
	<path fill="#C8C8C8" d="M178.8,18.2c0-6,3.4-9.7,9.3-9.7c5.4,0,8.9,3.6,8.9,9.9v3.7h-6.1v-4.3c0-2.7-1-4-3.1-4c-2,0-3,1.3-3,4v21.5
		c0,2.7,1,4,3,4c2,0,3.1-1.3,3.1-4v-5.2h6.1v4c0,6.8-3.4,10.5-9.1,10.5c-6,0-9.1-3.6-9.1-10.7V18.2L178.8,18.2z"/>
	<path fill="#C8C8C8" d="M213.5,9.3h5.9v16.2c0.3-1.1,0.6-2,0.8-2.5l5.9-13.8h5.9l-6.6,13.1l7.3,25.3h-6.1l-5-19.3l-2.2,4.4v15h-5.9
		V9.3L213.5,9.3z"/>
	<path fill="#C8C8C8" d="M252.4,34l2.1-16h0.4l2,16H252.4L252.4,34z M244.6,47.8h5.8l1.2-8.3h6l1.2,8.3h6.1l-6.3-38.4h-7.7
		L244.6,47.8L244.6,47.8z"/>
	<path fill="#C8C8C8" d="M285.6,14.9h2.1c2.9,0,3.9,1.2,3.9,5.3c0,4.3-0.8,5.8-3.6,5.8h-2.3V14.9L285.6,14.9z M285.6,31.6h2.8
		l3.6,16.2h6.1l-4.4-17.9c2.8-2,3.8-4.9,3.8-9.4c0-7.9-2.8-11.1-9.2-11.1h-8.7v38.4h5.9V31.6L285.6,31.6z"/>
	<polygon fill="#C8C8C8" points="310.5,9.3 328.8,9.3 328.8,14.9 322.6,14.9 322.6,47.8 316.7,47.8 316.7,14.9 310.5,14.9 
		310.5,9.3 	"/>
	<polygon fill="#C8C8C8" points="339.9,41.8 345.6,41.8 345.6,47.8 339.9,47.8 339.9,41.8 	"/>
	<path fill="#C8C8C8" d="M363,9.3h5.4l7.5,23c0.1,0.3,0.6,1.7,1.2,4.1c-0.5-2.7-0.7-4.5-0.7-5.1V9.3h5.5v38.4h-5.5l-7.2-21.2
		c-0.3-1-0.8-2.3-1.3-4.2c0.5,2.7,0.7,4.5,0.7,5.3v20.1H363V9.3L363,9.3z"/>
	<polygon fill="#C8C8C8" points="399.4,9.3 414.9,9.3 414.9,14.9 405.3,14.9 405.3,25 412.2,25 412.2,30.5 405.3,30.5 405.3,42 
		414.9,42 414.9,47.8 399.4,47.8 399.4,9.3 	"/>
	<polygon fill="#C8C8C8" points="427.5,9.3 445.8,9.3 445.8,14.9 439.6,14.9 439.6,47.8 433.7,47.8 433.7,14.9 427.5,14.9 
		427.5,9.3 	"/>
</g>
</svg>
