<?xml version="1.0" encoding="utf-8"?>
<!-- Generator: Adobe Illustrator 18.0.0, SVG Export Plug-In . SVG Version: 6.00 Build 0)  -->
<!DOCTYPE svg PUBLIC "-//W3C//DTD SVG 1.1//EN" "http://www.w3.org/Graphics/SVG/1.1/DTD/svg11.dtd">
<svg version="1.1" id="Layer_1" xmlns="http://www.w3.org/2000/svg" xmlns:xlink="http://www.w3.org/1999/xlink" x="0px" y="0px"
	 viewBox="0 0 49.9 26" style="enable-background:new 0 0 49.9 26;" xml:space="preserve">
<style type="text/css">
	.st0{fill:#221E20;}
	.st1{fill:#FFFFFF;}
</style>
<g>
	<polygon class="st0" points="0,11.3 0,15.4 3.6,17.5 3.6,13.3 0,11.3 	"/>
	<polygon class="st0" points="12.5,2.1 8.9,0 5.3,2.1 8.9,4.1 12.5,2.1 	"/>
	<polygon class="st0" points="3.6,7.2 7.2,5.1 3.6,3.1 0,5.1 0,9.3 3.6,11.3 3.6,7.2 	"/>
	<polygon class="st0" points="7.2,15.4 7.2,15.4 7.2,19.5 10.7,21.6 10.7,21.6 10.7,17.5 7.2,15.4 	"/>
	<polygon class="st0" points="12.5,8.2 10.7,7.2 7.2,9.3 7.2,13.4 8.9,14.4 10.7,15.5 10.7,13.3 10.7,11.3 12.5,10.3 14.3,9.3 
		12.5,8.2 	"/>
	<polygon class="st0" points="23.2,8.3 19.6,10.3 23.2,12.4 23.2,12.4 26.8,10.3 26.8,10.3 23.2,8.3 	"/>
	<polygon class="st0" points="14.3,19.5 14.3,23.7 17.9,25.7 17.9,21.6 14.3,19.5 	"/>
	<polygon class="st0" points="3.6,17.5 5.3,16.5 3.6,15.5 3.6,17.5 	"/>
	<polygon class="st0" points="17.9,25.7 19.6,24.7 17.9,23.7 17.9,25.7 	"/>
	<polygon class="st0" points="10.7,21.6 12.5,20.6 10.7,19.6 10.7,21.6 	"/>
	<polygon class="st0" points="26.8,10.3 25,11.3 26.8,12.3 26.8,10.3 	"/>
	<polygon class="st0" points="12.5,2.1 10.7,3.1 12.5,4.1 12.5,2.1 	"/>
	<polygon class="st0" points="19.6,12.3 17.9,11.3 16,12.4 14.3,13.4 14.3,15.4 14.3,17.5 16,18.5 17.9,19.6 17.9,17.5 17.9,15.5 
		19.6,14.5 21.5,13.4 19.6,12.3 	"/>
	<polygon class="st1" points="14.3,19.5 14.3,19.5 17.9,21.6 17.9,19.6 16,18.5 14.3,17.5 14.3,15.4 14.3,13.4 10.7,11.3 10.7,13.3 
		10.7,15.5 8.9,14.4 7.2,13.4 7.2,9.3 3.6,7.2 3.6,11.3 0,9.3 0,11.3 3.6,13.3 3.6,15.5 7.2,17.5 7.2,15.4 10.7,17.5 10.7,19.6 
		14.3,21.7 14.3,19.5 	"/>
	<polygon class="st1" points="14.3,5.1 10.7,3.1 8.9,4.1 5.3,2.1 3.6,3.1 7.2,5.1 3.6,7.2 7.2,9.3 10.7,7.2 12.5,8.2 14.3,9.3 
		12.5,10.3 10.7,11.3 14.3,13.4 16,12.4 17.9,11.3 19.6,12.3 21.5,13.4 23.2,12.4 19.6,10.3 21.5,9.3 17.9,7.2 14.3,5.1 	"/>
	<path class="st0" d="M33.6,26l2.7-8.2h1.4l2.7,8.2h-1.7l-0.5-1.8h-2.3L35.3,26H33.6L33.6,26z M37.8,23.1l-0.8-3h0l-0.8,3H37.8
		L37.8,23.1z"/>
	<polygon class="st0" points="42.2,26 42.2,17.8 43.8,17.8 46,22.1 46.1,22.1 48.3,17.8 49.9,17.8 49.9,26 48.2,26 48.2,21 
		46.5,24.5 45.6,24.5 43.9,21 43.9,26 42.2,26 	"/>
	<polygon class="st0" points="31.6,17.8 31.6,26 30,26 27.8,21.7 27.7,21.7 25.5,26 23.9,26 23.9,17.8 25.6,17.8 25.6,22.8 
		27.3,19.3 28.2,19.3 29.9,22.8 29.9,17.8 31.6,17.8 	"/>
</g>
</svg>
