<?xml version="1.0" encoding="utf-8"?>
<!-- Generator: Adobe Illustrator 18.0.0, SVG Export Plug-In . SVG Version: 6.00 Build 0)  -->
<!DOCTYPE svg PUBLIC "-//W3C//DTD SVG 1.0//EN" "http://www.w3.org/TR/2001/REC-SVG-20010904/DTD/svg10.dtd">
<svg version="1.0" id="Layer_1" xmlns="http://www.w3.org/2000/svg" xmlns:xlink="http://www.w3.org/1999/xlink" x="0px" y="0px"
	 viewBox="0 0 1280 720" enable-background="new 0 0 1280 720" xml:space="preserve">
<rect fill="#EEEEEE" width="1280" height="720"/>
<g>
	<path fill="#666666" d="M644,322.7c55.3,0,100.2-44.9,100.2-100.2S699.3,122.3,644,122.3s-100.2,44.9-100.2,100.2
		S588.7,322.7,644,322.7z M686.5,329.5h-85c-70.7,0-128.3,57.6-128.3,128.3v104l0.3,1.6l7.2,2.2c67.5,21.1,126.1,28.1,174.4,28.1
		c94.3,0,148.9-26.9,152.3-28.6l6.7-3.4h0.7v-104C814.8,387.1,757.2,329.5,686.5,329.5z"/>
</g>
</svg>
