<?xml version="1.0" encoding="utf-8"?>
<!-- Generator: Adobe Illustrator 18.0.0, SVG Export Plug-In . SVG Version: 6.00 Build 0)  -->
<!DOCTYPE svg PUBLIC "-//W3C//DTD SVG 1.0//EN" "http://www.w3.org/TR/2001/REC-SVG-20010904/DTD/svg10.dtd">
<svg version="1.0" id="Layer_1" xmlns="http://www.w3.org/2000/svg" xmlns:xlink="http://www.w3.org/1999/xlink" x="0px" y="0px"
	 viewBox="0 0 1280 720" enable-background="new 0 0 1280 720" xml:space="preserve">
<rect fill="#EEEEEE" width="1280" height="720"/>
<g>
	<path fill="#666666" d="M695,213.3c24.6,15.4,41.8,41.5,44.9,71.7c10,4.7,21.1,7.4,32.9,7.4c43,0,77.9-34.9,77.9-77.9
		c0-43-34.9-77.9-77.9-77.9C730.2,136.6,695.7,170.8,695,213.3z M644,372.8c43,0,77.9-34.9,77.9-77.9S687,217,644,217
		s-77.9,34.9-77.9,77.9S601,372.8,644,372.8z M677,378.1h-66.1c-55,0-99.8,44.8-99.8,99.8v80.8l0.2,1.3l5.6,1.7
		c52.5,16.4,98.1,21.9,135.6,21.9c73.3,0,115.8-20.9,118.4-22.2l5.2-2.6h0.6v-80.9C776.8,422.9,732,378.1,677,378.1z M805.9,297.7
		h-65.6c-0.7,26.2-11.9,49.9-29.6,66.9c48.9,14.5,84.7,59.9,84.7,113.4v24.9c64.8-2.4,102.1-20.7,104.6-22l5.2-2.6h0.6v-80.9
		C905.7,342.4,860.9,297.7,805.9,297.7z M507.3,292.4c15.2,0,29.4-4.4,41.4-12c3.8-24.9,17.2-46.7,36.2-61.5
		c0.1-1.5,0.2-2.9,0.2-4.4c0-43-34.9-77.9-77.9-77.9c-43,0-77.9,34.9-77.9,77.9C429.4,257.5,464.2,292.4,507.3,292.4z M577.2,364.5
		c-17.6-16.9-28.8-40.4-29.6-66.5c-2.4-0.2-4.8-0.4-7.3-0.4h-66.1c-55,0-99.8,44.7-99.8,99.7v80.9l0.2,1.2l5.6,1.8
		c42.1,13.1,79.7,19.2,112.3,21.1V478C492.6,424.4,528.3,379.1,577.2,364.5z"/>
</g>
</svg>
